<svg xmlns="http://www.w3.org/2000/svg" viewBox="0 0 76.32 71.15"><defs><style>.cls-1{fill:#40524d;}.cls-2{fill:#556362;}.cls-3{fill:#9bb6c4;}.cls-4{fill:#687174;}</style></defs><g id="Dołożone_chwyty" data-name="Dołożone chwyty"><path class="cls-1" d="M5,37.18l-.45-3.13c-1.15-4.72-.81-9.44,0-14.16l.56.14c6.55-7.89,18.67-10.75,28-6.61,5,2.23,8.12,6.27,8.37,11.51s-4.43,6.31-8.24,7.6c.13,0-.58.18-.44.15s-.13.35,0,.32c.51-.16.87-.29,1.31-.46,4.37-1.61,6.52,1.83,9.15,3.93,8.81,7.05,9.87,7.15,19.18,1,3.08-2,5.6-1.81,6.85,2a19.27,19.27,0,0,1,1.35,7.77c-4.28,14.33-14,20.85-28.46,19.51C30.41,65.71,19.9,63,15.07,50.58Q10,43.88,5,37.18Z"/><path class="cls-2" d="M47.91,6.14c0,.53,0,1.07.07,1.6,1.53,2.17,2,4.42-.39,6.21-4,3.09-7.07-.78-9.89-1.63,8.39,3.71,12.28,12,16.7,20,3.62-10.13,4.71-10.75,11-6.42,5.45,6.22,4,13,1.65,19.89-.53-2.21.62-4.68-1-6.76C58.83,47.25,51.63,48,42.5,41.12c-2.08-1.56-4.28-3.06-5.73-5.46-1.32-2.19-2.36.28-3.53.65C31.33,34.67,28.46,34,28,30.93c1.76-2.5,4.41-.75,6.53-1.38,4.1-1.22,5.22-4.41,3.08-8.11-2.61-4.52-6.32-6.91-11.65-6.07-2,.32-4,1.12-6.07.42C15.7,14.4,12.38,15.57,9.78,19c-1.27,1.68-2.93,1.72-4.73,1-.39-5.11,2.35-8.41,6.46-10.72C23.14,2.77,35.16.17,47.91,6.14Z"/><path class="cls-3" d="M28,30.93c3,.58,5.64,1.5,5.26,5.38-2.49,1.86-5,2.64-7.35-.14C25,33.8,27.38,32.73,28,31Z"/><path class="cls-2" d="M28,31c1.39,2.56-1.58,3.4-2.07,5.22C23.91,33.37,25.61,32,28,31Z"/><path class="cls-4" d="M65.44,25.89c-2.89-1-6.06-2.53-5.95,2.83.08,4-.9,7.62-3.89,10.44-1.9,1.79-4.29,1.17-4.46-1.38-.6-9-7.17-14.53-12.1-21-1.85-2.42-4.82-3.26-7.84-3.72a24.9,24.9,0,0,1-5.1-1.35,2.85,2.85,0,0,1-1.63-1.86c-.16-1.49,1.19-1.93,2.36-2,5.45-.22,10.52,1.54,15.42,3.56,4.19,1.73,5.35-.15,5.73-3.73A42.14,42.14,0,0,1,65.44,25.89Z"/></g></svg>